<svg xmlns="http://www.w3.org/2000/svg" width="486" height="486" viewBox="0 0 486 486"><title>pf_link</title><rect x="0.5" y="0.5" width="485" height="485" rx="25.66" ry="25.66" style="fill:#43698c"/><path d="M472.84,16A25.19,25.19,0,0,1,498,41.16V474.84A25.19,25.19,0,0,1,472.84,500H39.16A25.19,25.19,0,0,1,14,474.84V41.16A25.19,25.19,0,0,1,39.16,16H472.84m0-1H39.16A26.16,26.16,0,0,0,13,41.16V474.84A26.16,26.16,0,0,0,39.16,501H472.84A26.16,26.16,0,0,0,499,474.84V41.16A26.16,26.16,0,0,0,472.84,15Z" transform="translate(-13 -15)"/><path d="M52.53,142.28H109q39.78,0,57.55,11.89t17.77,37.59q0,17.77-9.91,29.32t-28.91,15v1.37Q191,245.21,191,285.26q0,26.79-18.11,41.83t-50.65,15H52.53Zm23.24,85.57H114q24.61,0,35.4-7.72t10.8-26q0-16.81-12-24.26t-38.28-7.45H75.76Zm0,19.68v74.77h41.69q24.2,0,36.43-9.36t12.23-29.32q0-18.59-12.51-27.34t-38.07-8.75Z" transform="translate(-13 -15)" style="fill:#fff"/><path d="M278.9,326.14a74,74,0,0,0,11.62-.89,74.94,74.94,0,0,0,8.88-1.85v17.36a41.47,41.47,0,0,1-10.87,2.94,81.75,81.75,0,0,1-12.92,1.16q-43.47,0-43.47-45.79V209.94H210.69V199l21.46-9.43,9.57-32h13.12v34.72h43.47v17.63H254.84v88.17q0,13.53,6.42,20.78T278.9,326.14Z" transform="translate(-13 -15)" style="fill:#fff"/><path d="M431.86,342.13V245.21q0-18.32-8.34-27.34t-26.11-9q-23.51,0-34.45,12.71t-10.94,42v78.6H329.34V192.31h18.46l3.69,20.5h1.09a46.33,46.33,0,0,1,19.55-17.16,63.53,63.53,0,0,1,28-6.08q27.07,0,40.74,13.05t13.67,41.76v97.74Z" transform="translate(-13 -15)" style="fill:#fff"/></svg>