<svg width="12" height="12" viewBox="0 0 12 12" fill="none" xmlns="http://www.w3.org/2000/svg">
<path fill-rule="evenodd" clip-rule="evenodd" d="M-5.24537e-08 5.99995C-8.1423e-08 5.33721 0.583976 4.79995 1.30435 4.79995L10.6957 4.79995C11.416 4.79995 12 5.33721 12 5.99995C12 6.66269 11.416 7.19995 10.6957 7.19995L1.30435 7.19995C0.583976 7.19995 -2.34843e-08 6.66269 -5.24537e-08 5.99995Z" fill="#242424"/>
<path fill-rule="evenodd" clip-rule="evenodd" d="M4.55586 11.6485C4.04648 11.1799 4.04648 10.4201 4.55586 9.95147L8.85094 6L4.55586 2.04853C4.04648 1.5799 4.04648 0.820102 4.55586 0.351472C5.06524 -0.117157 5.89111 -0.117157 6.40049 0.351472L11.6179 5.15147C12.1273 5.6201 12.1273 6.3799 11.6179 6.84853L6.40049 11.6485C5.89111 12.1172 5.06524 12.1172 4.55586 11.6485Z" fill="#242424"/>
</svg>
