<svg width="12" height="12" viewBox="0 0 12 12" fill="none" xmlns="http://www.w3.org/2000/svg">
<path fill-rule="evenodd" clip-rule="evenodd" d="M12 6.00011C12 6.66285 11.416 7.20011 10.6957 7.20011L1.30435 7.20011C0.583976 7.20011 -8.1423e-08 6.66285 -5.24537e-08 6.00011C-2.34843e-08 5.33737 0.583976 4.80011 1.30435 4.80011L10.6957 4.80011C11.416 4.80011 12 5.33737 12 6.00011Z" fill="#242424"/>
<path fill-rule="evenodd" clip-rule="evenodd" d="M7.44414 0.351472C7.95352 0.820101 7.95352 1.5799 7.44414 2.04853L3.14906 6L7.44414 9.95147C7.95352 10.4201 7.95352 11.1799 7.44414 11.6485C6.93476 12.1172 6.10889 12.1172 5.59951 11.6485L0.382119 6.84853C-0.12726 6.3799 -0.12726 5.6201 0.382119 5.15147L5.59951 0.351472C6.10889 -0.117157 6.93476 -0.117157 7.44414 0.351472Z" fill="#242424"/>
</svg>
