<svg width="24" height="24" viewBox="0 0 24 24" fill="none" xmlns="http://www.w3.org/2000/svg">
<rect width="24" height="24" rx="12" fill="#ffffff"/>
<path fill-rule="evenodd" clip-rule="evenodd" d="M6 11.9999C6 11.3371 6.58398 10.7999 7.30435 10.7999L16.6957 10.7999C17.416 10.7999 18 11.3371 18 11.9999C18 12.6626 17.416 13.1999 16.6957 13.1999L7.30435 13.1999C6.58398 13.1999 6 12.6626 6 11.9999Z" fill="#242424"/>
<path fill-rule="evenodd" clip-rule="evenodd" d="M10.5559 17.6485C10.0465 17.1799 10.0465 16.4201 10.5559 15.9515L14.8509 12L10.5559 8.04853C10.0465 7.5799 10.0465 6.8201 10.5559 6.35147C11.0652 5.88284 11.8911 5.88284 12.4005 6.35147L17.6179 11.1515C18.1273 11.6201 18.1273 12.3799 17.6179 12.8485L12.4005 17.6485C11.8911 18.1172 11.0652 18.1172 10.5559 17.6485Z" fill="#242424"/>
</svg>
