<svg width="12" height="12" viewBox="0 0 12 12" fill="none" xmlns="http://www.w3.org/2000/svg">
<path fill-rule="evenodd" clip-rule="evenodd" d="M0 5.52031C0 4.85757 0.537258 4.32031 1.2 4.32031H10.8C11.4627 4.32031 12 4.85757 12 5.52031C12 6.18305 11.4627 6.72031 10.8 6.72031H1.2C0.537258 6.72031 0 6.18305 0 5.52031Z" fill="#242424"/>
<path fill-rule="evenodd" clip-rule="evenodd" d="M5.9998 12C5.33706 12 4.7998 11.4627 4.7998 10.8L4.7998 1.2C4.7998 0.537258 5.33706 -2.34843e-08 5.9998 -5.24537e-08C6.66255 -8.1423e-08 7.1998 0.537258 7.1998 1.2L7.1998 10.8C7.1998 11.4627 6.66255 12 5.9998 12Z" fill="#242424"/>
</svg>
