<svg width="32" height="33" viewBox="-2 -1 35 33" fill="none" xmlns="http://www.w3.org/2000/svg">
<path fill-rule="evenodd" clip-rule="evenodd" d="M3.92238 3.95792C6.53444 1.34586 9.97061 0 13.4098 0C16.848 0 20.2807 1.34483 22.8906 3.88024L22.9006 3.88994C28.1244 9.18831 28.1289 17.7012 22.8973 22.9328C20.2852 25.5449 16.8491 26.8907 13.4098 26.8907C9.9717 26.8907 6.53902 25.5459 3.92903 23.0105L3.91905 23.0008C-1.30469 17.7024 -1.3092 9.1895 3.92238 3.95792ZM13.4098 1.28896C10.3064 1.28896 7.19988 2.50328 4.83381 4.86935C0.110765 9.59239 0.104531 17.2903 4.83215 22.0908C7.19967 24.3881 10.3075 25.6018 13.4098 25.6018C16.5133 25.6018 19.6198 24.3875 21.9859 22.0214C26.7089 17.2984 26.7151 9.60042 21.9875 4.79997C19.62 2.50261 16.5122 1.28896 13.4098 1.28896Z" fill="#ffffff"  stroke="#ffffff" stroke-linecap="square" stroke-width="3" />
<path fill-rule="evenodd" clip-rule="evenodd" d="M22.8972 22.0211L32 31.124L31.0886 32.0354L21.9857 22.9325L22.8972 22.0211Z" fill="#ffffff"  stroke="#ffffff" stroke-linecap="square" stroke-width="3"/>
<path fill-rule="evenodd" clip-rule="evenodd" d="M12.7651 19.8461V7.04521H14.0541V19.8461H12.7651Z" fill="#ffffff"  stroke="#ffffff" stroke-linecap="square" stroke-width="3"/>
<path fill-rule="evenodd" clip-rule="evenodd" d="M19.8102 14.0895H7.00936V12.8005H19.8102V14.0895Z" fill="#ffffff"  stroke="#ffffff" stroke-linecap="square" stroke-width="3"/>
</svg>
